<svg width="30" height="30" viewBox="0 0 30 30" fill="none" xmlns="http://www.w3.org/2000/svg">
<g clip-path="url(#clip0_9_81)">
<path d="M8.30459 8.36341C10.0205 6.633 12.3969 5.55924 15.0094 5.56176C17.4179 5.56412 19.6155 6.46841 21.2822 7.95547C21.521 8.16853 21.9043 8.15453 22.1306 7.92824L25.1884 4.87041C25.4374 4.62141 25.4305 4.21453 25.1718 3.9757C22.4463 1.46 18.7865 -0.058063 14.7714 0.00170179C10.7121 0.0621136 7.04023 1.74829 4.37282 4.43165C4.07541 4.73082 4.42329 8.35277 4.42329 8.35277C4.42329 8.35277 6.63029 10.0519 8.30459 8.36341Z" fill="url(#paint0_linear_9_81)"/>
<path d="M8.30461 8.3634C10.0205 6.63299 12.3969 5.55922 15.0094 5.56175C17.418 5.56411 19.6155 6.4684 21.2822 7.95546C21.521 8.16852 21.9043 8.15452 22.1306 7.92822L23.8854 6.17346C23.7325 6.05534 23.5818 5.93134 23.4348 5.80111C21.1471 3.77505 18.1707 2.48581 14.8665 2.52052C11.4398 2.55652 8.36202 3.95417 6.13655 6.19522C5.8932 6.44028 5.79761 8.35664 5.79761 8.35664C5.79761 8.35664 6.08314 8.33081 8.30461 8.3634Z" fill="url(#paint1_linear_9_81)"/>
<path d="M5.56237 14.9147C5.53884 17.57 6.61178 19.9747 8.35531 21.7035L7.01707 24.5915L4.42296 25.6359C1.6959 22.9235 0.00589782 19.17 1.54671e-05 15.0218C-0.00586689 10.9024 1.66649 7.15353 4.37296 4.43176L8.30472 8.36353C6.6306 10.0518 5.58472 12.3653 5.56237 14.9147Z" fill="url(#paint2_linear_9_81)"/>
<path d="M5.56236 14.9147C5.53883 17.57 6.61177 19.9747 8.3553 21.7035L6.2053 23.8541C3.97353 21.6376 2.5753 18.5829 2.52177 15.2018C2.46589 11.6847 3.85236 8.49588 6.13706 6.19588L8.30471 8.36352C6.63059 10.0518 5.58471 12.3653 5.56236 14.9147Z" fill="url(#paint3_linear_9_81)"/>
<path d="M21.6525 21.7112C19.9326 23.4154 17.5582 24.4546 14.939 24.4381C12.3717 24.4218 10.0482 23.3802 8.35605 21.7029L4.42334 25.6356C7.12516 28.3225 10.8446 29.9874 14.953 30C19.0698 30.0126 22.8139 28.3197 25.5377 25.5966L24.4137 23.1933L21.6525 21.7112Z" fill="url(#paint4_linear_9_81)"/>
<path d="M21.6523 21.711C19.9323 23.4152 17.558 24.4547 14.9389 24.4382C12.3717 24.422 10.0481 23.3804 8.35603 21.7029L6.20532 23.8536C8.46138 26.0948 11.5689 27.48 15 27.48C18.4313 27.48 21.5387 26.0948 23.7948 23.8536L21.6523 21.711Z" fill="url(#paint5_linear_9_81)"/>
<path d="M30 13.4595C30 13.1638 29.7603 12.9241 29.4646 12.9241H15.5022C15.2373 12.9241 15.0226 13.1388 15.0226 13.4037V18.0202C15.0226 18.2851 15.2373 18.4999 15.5022 18.4999H22.3211C23.0235 18.4999 23.4596 19.2663 23.0983 19.8686C22.6951 20.5409 22.2101 21.1569 21.658 21.7049C21.6559 21.707 21.6545 21.709 21.6524 21.7112L25.5383 25.597C25.7218 25.4136 25.9079 25.23 26.0956 25.0459C28.5235 22.3533 30 18.781 30 14.8839V13.4595Z" fill="url(#paint6_linear_9_81)"/>
<path d="M26.8494 18.9282C27.3982 17.2694 26.1688 15.5588 24.4218 15.5588H15.0226V18.0202C15.0226 18.2851 15.2373 18.4999 15.5022 18.4999H22.3211C23.0235 18.4999 23.4596 19.2663 23.0983 19.8686C22.6964 20.5387 22.2132 21.1528 21.6633 21.6994C21.6595 21.7034 21.6564 21.7072 21.6524 21.7112L23.7948 23.8535C24.9336 22.7235 25.8548 21.3747 26.4918 19.8759C26.6229 19.5659 26.7424 19.25 26.8494 18.9282Z" fill="url(#paint7_linear_9_81)"/>
</g>
<defs>
<linearGradient id="paint0_linear_9_81" x1="4.25259" y1="4.55553" x2="25.3705" y2="4.55553" gradientUnits="userSpaceOnUse">
<stop stop-color="#FF637B"/>
<stop offset="1" stop-color="#F90217"/>
</linearGradient>
<linearGradient id="paint1_linear_9_81" x1="20.2454" y1="12.6691" x2="6.97756" y2="-0.59884" gradientUnits="userSpaceOnUse">
<stop stop-color="#FF637B"/>
<stop offset="1" stop-color="#F90217"/>
</linearGradient>
<linearGradient id="paint2_linear_9_81" x1="0.356721" y1="10.9926" x2="8.51366" y2="19.1496" gradientUnits="userSpaceOnUse">
<stop stop-color="#FFD833"/>
<stop offset="1" stop-color="#F2B631"/>
</linearGradient>
<linearGradient id="paint3_linear_9_81" x1="10.3672" y1="19.2211" x2="1.65159" y2="10.5055" gradientUnits="userSpaceOnUse">
<stop stop-color="#FFD833"/>
<stop offset="1" stop-color="#F2B631"/>
</linearGradient>
<linearGradient id="paint4_linear_9_81" x1="13.708" y1="23.7038" x2="18.2592" y2="28.2551" gradientUnits="userSpaceOnUse">
<stop stop-color="#28A265"/>
<stop offset="1" stop-color="#28895E"/>
</linearGradient>
<linearGradient id="paint5_linear_9_81" x1="20.8142" y1="29.6678" x2="7.64924" y2="16.5028" gradientUnits="userSpaceOnUse">
<stop stop-color="#28A265"/>
<stop offset="1" stop-color="#28895E"/>
</linearGradient>
<linearGradient id="paint6_linear_9_81" x1="21.4109" y1="14.6278" x2="28.3917" y2="21.6087" gradientUnits="userSpaceOnUse">
<stop stop-color="#7FAEF4"/>
<stop offset="1" stop-color="#4C8DF1"/>
</linearGradient>
<linearGradient id="paint7_linear_9_81" x1="27.2572" y1="23.894" x2="18.1945" y2="14.8313" gradientUnits="userSpaceOnUse">
<stop stop-color="#7FAEF4"/>
<stop offset="1" stop-color="#4C8DF1"/>
</linearGradient>
<clipPath id="clip0_9_81">
<rect width="30" height="30" fill="white"/>
</clipPath>
</defs>
</svg>
