<svg width="24" height="24" viewBox="0 0 24 24" fill="none" xmlns="http://www.w3.org/2000/svg">
<path d="M15.7208 7.93351C15.7208 9.96108 14.0771 11.6048 12.0495 11.6048C10.0219 11.6048 8.37828 9.96108 8.37828 7.93351C8.37828 5.90594 10.0219 4.26227 12.0495 4.26227C14.0771 4.26227 15.7208 5.90594 15.7208 7.93351Z" fill="white"/>
<path d="M5.41176 16.9423C5.41176 18.8272 8.3835 19.7377 12.0493 19.7377C15.7152 19.7377 18.6873 18.8272 18.6873 16.9423C18.6873 15.0575 15.7152 12.9121 12.0493 12.9121C8.3835 12.9121 5.41176 15.0575 5.41176 16.9423Z" fill="white"/>
<path d="M16.4688 10.1821C16.2985 10.4555 16.4006 10.8347 16.7208 10.8699C16.8206 10.8809 16.9221 10.8865 17.0249 10.8865C18.5446 10.8865 19.7766 9.65452 19.7766 8.13481C19.7766 6.6151 18.5446 5.38313 17.0249 5.38313C17.0122 5.38313 16.9994 5.38321 16.9867 5.38339C16.6644 5.38777 16.526 5.75546 16.6692 6.04423C16.9515 6.61354 17.1102 7.25499 17.1102 7.93351C17.1102 8.75896 16.8753 9.52955 16.4688 10.1821Z" fill="white"/>
<path d="M20.0989 15.9935C20.1903 16.2821 20.4907 16.4953 20.7669 16.3712C21.5346 16.026 22 15.5329 22 14.8871C22 13.4744 19.7723 11.8664 17.0247 11.8664C16.7229 11.8664 16.4274 11.8858 16.1405 11.9222C15.6757 11.9811 15.7016 12.5879 16.145 12.7391C18.1928 13.4375 19.6947 14.7165 20.0989 15.9935Z" fill="white"/>
<path d="M6.97511 10.8865C7.07789 10.8865 7.17935 10.8809 7.27921 10.8699C7.59936 10.8347 7.70151 10.4555 7.53121 10.1821C7.12469 9.52955 6.88985 8.75896 6.88985 7.93351C6.88985 7.25499 7.04853 6.61354 7.3308 6.04423C7.47399 5.75546 7.33557 5.38777 7.01327 5.38339C7.00057 5.38321 6.98785 5.38313 6.97511 5.38313C5.45539 5.38313 4.22342 6.6151 4.22342 8.13481C4.22342 9.65452 5.45539 10.8865 6.97511 10.8865Z" fill="white"/>
<path d="M2 14.8871C2 15.5329 2.46541 16.026 3.23315 16.3712C3.50927 16.4953 3.80973 16.2821 3.90109 15.9935C4.30526 14.7165 5.80717 13.4375 7.85503 12.7391C8.29845 12.5879 8.32431 11.9811 7.85954 11.9222C7.57257 11.8858 7.27707 11.8664 6.97529 11.8664C4.22766 11.8664 2 13.4744 2 14.8871Z" fill="white"/>
</svg>
