<svg width="16" height="16" viewBox="0 0 16 16" fill="none" xmlns="http://www.w3.org/2000/svg">
<path d="M2 2L14 14" stroke="white" stroke-linecap="round" stroke-linejoin="round"/>
<path d="M7.05598 7.058C6.80579 7.30801 6.66516 7.64717 6.66504 8.00086C6.66491 8.35456 6.8053 8.69381 7.05531 8.944C7.30532 9.19419 7.64448 9.33481 7.99817 9.33494C8.35186 9.33506 8.69112 9.19468 8.94131 8.94467" stroke="white" stroke-linecap="round" stroke-linejoin="round"/>
<path d="M11.5714 11.566C10.484 12.2993 9.29471 12.6667 8.00004 12.6667C5.33337 12.6667 3.11137 11.1113 1.33337 8C2.24604 6.40333 3.27537 5.21667 4.42137 4.43933M6.24204 3.57667C6.81365 3.41315 7.4055 3.33123 8.00004 3.33333C10.6667 3.33333 12.8887 4.88867 14.6667 8C14.148 8.90733 13.592 9.68267 12.998 10.3253L6.24204 3.57667Z" stroke="white" stroke-linecap="round" stroke-linejoin="round"/>
</svg>
