<svg width="50" height="50" viewBox="0 0 50 50" fill="none" xmlns="http://www.w3.org/2000/svg">
<mask id="mask0_19_341" style="mask-type:alpha" maskUnits="userSpaceOnUse" x="0" y="0" width="50" height="50">
<rect width="50" height="50" fill="#C4C4C4"/>
</mask>
<g mask="url(#mask0_19_341)">
<path d="M9.84078 43.0232C9.18039 42.6365 8.60303 42.1236 8.14185 41.5137C7.68067 40.9039 7.34475 40.2092 7.15335 39.4696C6.96195 38.7299 6.91886 37.9598 7.02654 37.2035C7.13421 36.4471 7.39051 35.7195 7.78078 35.0622L21.0223 12.6634C21.4101 12.0048 21.9245 11.4291 22.5359 10.9693C23.1472 10.5096 23.8436 10.1747 24.585 9.98407C25.3264 9.79341 26.0982 9.75067 26.8562 9.85832C27.6142 9.96596 28.3434 10.2219 29.0021 10.6113C29.6626 10.9975 30.2401 11.5099 30.7017 12.1193C31.1632 12.7287 31.4995 13.4229 31.6915 14.1623C31.8835 14.9016 31.9272 15.6715 31.8203 16.4278C31.7133 17.184 31.4577 17.9118 31.0682 18.5692L17.8267 40.9681C17.4391 41.6269 16.9249 42.2029 16.3137 42.663C15.7024 43.1231 15.0061 43.4582 14.2647 43.6491C13.5232 43.8401 12.7513 43.8831 11.9932 43.7757C11.2351 43.6683 10.5057 43.4125 9.84689 43.0232H9.84078Z" fill="#3F3F69"/>
<path d="M40.8114 9.37152C37.1659 4.82763 29.3361 4.75435 21.6134 8.61116C27.7015 6.01247 33.5907 6.28119 36.4159 9.79904C40.2788 14.6178 36.9302 23.6872 28.9259 30.1C20.9216 36.5127 11.3104 37.7586 7.4475 32.9399C5.66911 30.7229 5.42117 27.599 6.44658 24.2552C4.61003 28.8357 4.68043 33.2544 7.11385 36.2868C11.7052 42.0185 22.9816 40.6444 32.2837 33.2147C41.5858 25.7851 45.4089 15.1033 40.8114 9.37152Z" fill="url(#paint0_radial_19_341)"/>
<path d="M40.4382 28.4266C38.5671 30.9615 36.3687 33.2388 33.9001 35.1997C33.2165 35.7432 32.5237 36.2573 31.8218 36.7418L34.3225 40.9681C34.7112 41.6255 35.2259 42.2002 35.8372 42.6592C36.4485 43.1182 37.1445 43.4526 37.8853 43.6433C38.6262 43.834 39.3974 43.8773 40.155 43.7706C40.9126 43.664 41.6418 43.4095 42.3008 43.0217C42.9598 42.6339 43.5358 42.1204 43.9959 41.5106C44.456 40.9007 44.7912 40.2064 44.9824 39.4673C45.1735 38.7282 45.2169 37.9588 45.11 37.2029C45.003 36.4471 44.748 35.7197 44.3593 35.0622L40.4382 28.4266Z" fill="url(#paint1_linear_19_341)"/>
<path d="M31.0687 12.6939L31.0473 12.6603C30.5341 11.7882 29.8013 11.065 28.9216 10.5626C28.0418 10.0601 27.0457 9.79575 26.032 9.79575C25.0183 9.79575 24.0222 10.0601 23.1425 10.5626C22.2627 11.065 21.5299 11.7882 21.0167 12.6603L20.8575 12.929L16.5723 20.1877C17.0681 19.47 19.4924 16.3492 21.7758 19.7601L26.0611 27.0096L26.8936 28.4143L27.3222 28.0845C30.8208 25.2904 33.392 21.8061 34.6255 18.6181L31.0687 12.6939Z" fill="url(#paint2_linear_19_341)"/>
</g>
<defs>
<radialGradient id="paint0_radial_19_341" cx="0" cy="0" r="1" gradientUnits="userSpaceOnUse" gradientTransform="translate(32.4582 11.048) scale(17.9339 17.8916)">
<stop stop-color="#A942D3"/>
<stop offset="0.11" stop-color="#9939D6"/>
<stop offset="0.35" stop-color="#7B29DB"/>
<stop offset="0.55" stop-color="#691FDF"/>
<stop offset="0.7" stop-color="#621BE0"/>
</radialGradient>
<linearGradient id="paint1_linear_19_341" x1="33.9369" y1="26.0936" x2="47.5828" y2="58.2477" gradientUnits="userSpaceOnUse">
<stop stop-color="#5654D5"/>
<stop offset="0.02" stop-color="#5652D5"/>
<stop offset="0.29" stop-color="#5D34DB"/>
<stop offset="0.53" stop-color="#6122DF"/>
<stop offset="0.7" stop-color="#621BE0"/>
</linearGradient>
<linearGradient id="paint2_linear_19_341" x1="16.5753" y1="19.1097" x2="40.6249" y2="19.1097" gradientUnits="userSpaceOnUse">
<stop stop-color="#5735E3"/>
<stop offset="0.02" stop-color="#5834E3"/>
<stop offset="0.42" stop-color="#5F22E1"/>
<stop offset="0.7" stop-color="#621BE0"/>
</linearGradient>
</defs>
</svg>
