<svg width="24" height="24" viewBox="0 0 24 24" fill="none" xmlns="http://www.w3.org/2000/svg">
<path fill-rule="evenodd" clip-rule="evenodd" d="M7.41292 2.49579C5.25188 2.49579 3.5 4.24766 3.5 6.40871V17.5913C3.5 19.7523 5.25188 21.5042 7.41292 21.5042H16.5871C18.7481 21.5042 20.5 19.7523 20.5 17.5913V6.40871C20.5 4.24766 18.7481 2.49579 16.5871 2.49579H7.41292ZM13.3264 12.9781C13.8667 12.9781 14.3047 12.5401 14.3047 11.9999C14.3047 11.4596 13.8667 11.0216 13.3264 11.0216H7.90254C7.36228 11.0216 6.92431 11.4596 6.92431 11.9999C6.92431 12.5401 7.36228 12.9781 7.90254 12.9781H13.3264ZM10.9832 15.7582C10.9832 15.2179 10.5452 14.78 10.0049 14.78H7.9025C7.36224 14.78 6.92427 15.2179 6.92427 15.7582C6.92427 16.2985 7.36224 16.7364 7.9025 16.7364H10.0049C10.5452 16.7364 10.9832 16.2985 10.9832 15.7582ZM14.5611 9.2202C15.1014 9.2202 15.5394 8.78223 15.5394 8.24197C15.5394 7.70171 15.1014 7.26374 14.5611 7.26374H7.90247C7.3622 7.26374 6.92424 7.70171 6.92424 8.24197C6.92424 8.78223 7.3622 9.2202 7.90247 9.2202H14.5611Z" fill="white"/>
</svg>
