<svg width="24" height="24" viewBox="0 0 24 24" fill="none" xmlns="http://www.w3.org/2000/svg">
<path d="M19.5841 14.4054L19.584 14.4054V14.418C19.584 15.3734 18.8941 16.0053 18.2013 16.1609L18.1404 16.1746L18.0843 16.1956L18.0835 16.1958L18.0833 16.1959L18.0829 16.1961L18.0714 16.2002C18.0591 16.2045 18.038 16.2118 18.0084 16.2216C17.9491 16.2412 17.8553 16.2709 17.728 16.3074C17.4733 16.3804 17.0844 16.4808 16.5682 16.5821C15.536 16.7846 13.9947 16.9912 12 16.9912C10.0053 16.9912 8.46395 16.7846 7.43176 16.5821C6.91559 16.4808 6.52666 16.3804 6.27199 16.3074C6.14465 16.2709 6.0509 16.2412 5.99161 16.2216C5.96196 16.2118 5.94093 16.2045 5.92863 16.2002L5.91715 16.1961L5.91674 16.1959L5.91647 16.1958L5.91573 16.1956L5.90182 16.1904L5.8854 16.1849C5.06981 15.9154 4.41595 15.3205 4.41595 14.418H4.41604L4.41587 14.4054C4.41207 14.1294 4.49791 13.6926 4.74689 13.3409C4.94751 13.0576 5.19669 12.7746 5.48895 12.4445L4.8033 11.8375L5.48895 12.4445L5.51177 12.4188C5.84912 12.0378 6.2472 11.5882 6.55489 11.096C6.87731 10.5803 7.13983 9.95891 7.13983 9.22868C7.13983 5.82428 9.2734 3.89705 11.7612 3.89705H12.2388C14.7266 3.89705 16.8602 5.82428 16.8602 9.22868C16.8602 9.95891 17.1227 10.5803 17.4451 11.0961C17.7528 11.5882 18.1509 12.0378 18.4882 12.4188L18.511 12.4445C18.8033 12.7746 19.0525 13.0576 19.2531 13.3409C19.5021 13.6926 19.5879 14.1294 19.5841 14.4054Z" stroke="#191923" stroke-width="1.83151"/>
<path d="M11.3575 20.1029C11.1073 20.1029 10.8833 19.9907 10.733 19.8139H13.6958C13.5455 19.9907 13.3215 20.1029 13.0712 20.1029H11.3575Z" stroke="#191923" stroke-width="1.83151"/>
<circle cx="15" cy="6" r="4.5" fill="#003791" stroke="white"/>
</svg>
