<svg width="24" height="24" viewBox="0 0 24 24" fill="none" xmlns="http://www.w3.org/2000/svg">
<path fill-rule="evenodd" clip-rule="evenodd" d="M10.6642 1.99387C5.8683 1.99387 1.99951 5.92045 1.99951 10.7405C1.99951 15.5606 5.8683 19.4872 10.6642 19.4872C15.4601 19.4872 19.3288 15.5606 19.3288 10.7405C19.3288 8.42435 18.4187 6.20082 16.795 4.55966C15.1709 2.91813 12.9658 1.99387 10.6642 1.99387ZM4.08975 10.7405C4.08975 7.05371 7.04374 4.08411 10.6642 4.08411C12.4042 4.08411 14.0752 4.78266 15.3091 6.02976C16.5433 7.27724 17.2386 8.97154 17.2386 10.7405C17.2386 14.4273 14.2846 17.3969 10.6642 17.3969C7.04374 17.3969 4.08975 14.4273 4.08975 10.7405ZM19.1106 17.6386C18.7024 17.2305 18.0407 17.2305 17.6326 17.6386C17.2244 18.0468 17.2244 18.7085 17.6326 19.1166L20.2159 21.7C20.624 22.1081 21.2858 22.1081 21.6939 21.7C22.1021 21.2919 22.1021 20.6301 21.6939 20.222L19.1106 17.6386Z" fill="#191923"/>
</svg>
