<svg width="24" height="24" viewBox="0 0 24 24" fill="none" xmlns="http://www.w3.org/2000/svg">
<path fill-rule="evenodd" clip-rule="evenodd" d="M7.27232 2C4.3605 2 2 4.3605 2 7.27232V16.7277C2 19.6395 4.3605 22 7.27232 22H16.7277C19.6395 22 22 19.6395 22 16.7277V7.27232C22 4.3605 19.6395 2 16.7277 2H7.27232ZM12.9886 7.68871C12.9886 7.14274 12.546 6.70015 12 6.70015C11.4541 6.70015 11.0115 7.14274 11.0115 7.68871V16.3113C11.0115 16.8572 11.4541 17.2998 12 17.2998C12.546 17.2998 12.9886 16.8572 12.9886 16.3113V7.68871ZM8.04579 12.6002C8.59176 12.6002 9.03435 13.0428 9.03435 13.5888L9.03435 16.3113C9.03435 16.8573 8.59176 17.2998 8.04579 17.2998C7.49983 17.2998 7.05723 16.8573 7.05723 16.3113L7.05723 13.5888C7.05723 13.0428 7.49983 12.6002 8.04579 12.6002ZM16.9428 10.8662C16.9428 10.3203 16.5002 9.87767 15.9543 9.87767C15.4083 9.87767 14.9657 10.3203 14.9657 10.8662V16.3113C14.9657 16.8573 15.4083 17.2998 15.9543 17.2998C16.5002 17.2998 16.9428 16.8573 16.9428 16.3113V10.8662Z" fill="white"/>
</svg>
